<?xml version="1.0" encoding="iso-8859-1"?>
<!-- Generator: Adobe Illustrator 19.0.0, SVG Export Plug-In . SVG Version: 6.00 Build 0)  -->
<svg version="1.1" id="Capa_1" xmlns="http://www.w3.org/2000/svg" xmlns:xlink="http://www.w3.org/1999/xlink" x="0px" y="0px"
	 viewBox="0 0 512 512" style="enable-background:new 0 0 512 512;" xml:space="preserve">
<g>
	<g>
		<path d="M464.758,386.196c12.293-11.361,20.008-27.606,20.008-45.626c0-34.267-27.878-62.146-62.146-62.146
			c-34.267,0-62.146,27.878-62.146,62.146c0,18.02,7.716,34.265,20.008,45.626c-5.234,2.81-10.159,6.122-14.706,9.878
			c-14.372-22.808-35.648-40.843-60.874-51.154c23.375-15.765,38.777-42.488,38.777-72.742c0-48.347-39.333-87.68-87.68-87.68
			s-87.68,39.333-87.68,87.68c0,30.254,15.403,56.977,38.777,72.742c-25.227,10.311-46.503,28.346-60.874,51.154
			c-4.547-3.756-9.472-7.069-14.706-9.879c12.293-11.361,20.008-27.606,20.008-45.626c0-34.267-27.878-62.146-62.145-62.146
			c-34.268,0-62.146,27.878-62.146,62.146c0,18.02,7.716,34.265,20.008,45.626C19.148,401.278,0,430.943,0,465v15h512v-15
			C512,430.943,492.852,401.279,464.758,386.196z M89.38,308.424c17.725,0,32.146,14.42,32.146,32.146s-14.42,32.146-32.146,32.146
			s-32.146-14.42-32.146-32.146C57.234,322.845,71.654,308.424,89.38,308.424z M127.21,450H31.919
			c6.662-25.504,29.899-44.38,57.461-44.38c17.126,0,32.578,7.292,43.426,18.929C130.12,432.708,128.226,441.221,127.21,450z
			 M198.32,272.179c0-31.805,25.875-57.68,57.68-57.68s57.68,25.875,57.68,57.68s-25.875,57.68-57.68,57.68
			S198.32,303.984,198.32,272.179z M157.463,450c7.257-47.862,48.681-84.664,98.537-84.664s91.28,36.801,98.537,84.664H157.463z
			 M422.62,308.424c17.726,0,32.146,14.42,32.146,32.146s-14.42,32.146-32.146,32.146c-17.725,0-32.146-14.42-32.146-32.146
			C390.475,322.845,404.895,308.424,422.62,308.424z M384.791,450c-1.016-8.779-2.911-17.292-5.596-25.451
			c10.847-11.637,26.3-18.929,43.426-18.929c27.562,0,50.799,18.876,57.461,44.38H384.791z"/>
	</g>
</g>
<g>
	<g>
		<polygon points="293.568,74.536 271,94.597 271,32 241,32 241,94.597 218.431,74.536 198.5,96.958 256,148.069 313.499,96.958 		
			"/>
	</g>
</g>
<g>
	<g>
		
			<rect x="146.458" y="129.381" transform="matrix(0.6412 -0.7674 0.7674 0.6412 -61.2222 179.6146)" width="30.001" height="51.788"/>
	</g>
</g>
<g>
	<g>
		
			<rect x="111.987" y="196.845" transform="matrix(0.3806 -0.9247 0.9247 0.3806 -121.0925 251.2302)" width="30.002" height="38.322"/>
	</g>
</g>
<g>
	<g>
		
			<rect x="324.64" y="140.254" transform="matrix(0.7674 -0.6411 0.6411 0.7674 -18.0157 260.8427)" width="51.785" height="29.999"/>
	</g>
</g>
<g>
	<g>
		
			<rect x="365.818" y="201.004" transform="matrix(0.9247 -0.3806 0.3806 0.9247 -53.2367 162.7693)" width="38.322" height="30.002"/>
	</g>
</g>
<g>
</g>
<g>
</g>
<g>
</g>
<g>
</g>
<g>
</g>
<g>
</g>
<g>
</g>
<g>
</g>
<g>
</g>
<g>
</g>
<g>
</g>
<g>
</g>
<g>
</g>
<g>
</g>
<g>
</g>
</svg>
