<?xml version="1.0" encoding="UTF-8"?>
<svg width="16px" height="13px" viewBox="0 0 16 13" version="1.1" xmlns="http://www.w3.org/2000/svg" xmlns:xlink="http://www.w3.org/1999/xlink">
    <!-- Generator: Sketch 55.2 (78181) - https://sketchapp.com -->
    <title>Path</title>
    <desc>Created with Sketch.</desc>
    <g id="Page-3" stroke="none" stroke-width="1" fill="none" fill-rule="evenodd">
        <g id="home-copy-11" transform="translate(-1023.000000, -362.000000)" fill="#FFFFFF" fill-rule="nonzero">
            <g id="Group-12-Copy" transform="translate(1011.000000, 349.000000)">
                <path d="M28,14.539 C27.405,14.8 26.771,14.973 26.11,15.057 C26.79,14.651 27.309,14.013 27.553,13.244 C26.919,13.622 26.219,13.889 25.473,14.038 C24.871,13.397 24.013,13 23.077,13 C21.261,13 19.799,14.474 19.799,16.281 C19.799,16.541 19.821,16.791 19.875,17.029 C17.148,16.896 14.735,15.589 13.114,13.598 C12.831,14.089 12.665,14.651 12.665,15.256 C12.665,16.392 13.25,17.399 14.122,17.982 C13.595,17.972 13.078,17.819 12.64,17.578 C12.64,17.588 12.64,17.601 12.64,17.614 C12.64,19.208 13.777,20.532 15.268,20.837 C15.001,20.91 14.71,20.945 14.408,20.945 C14.198,20.945 13.986,20.933 13.787,20.889 C14.212,22.188 15.418,23.143 16.852,23.174 C15.736,24.047 14.319,24.573 12.785,24.573 C12.516,24.573 12.258,24.561 12,24.528 C13.453,25.465 15.175,26 17.032,26 C23.068,26 26.368,21 26.368,16.666 C26.368,16.521 26.363,16.381 26.356,16.242 C27.007,15.78 27.554,15.203 28,14.539 Z" id="Path"></path>
            </g>
        </g>
    </g>
</svg>