<?xml version="1.0" encoding="UTF-8"?>
<svg width="13px" height="13px" viewBox="0 0 13 13" version="1.1" xmlns="http://www.w3.org/2000/svg" xmlns:xlink="http://www.w3.org/1999/xlink">
    <!-- Generator: Sketch 55.2 (78181) - https://sketchapp.com -->
    <title>google-plus</title>
    <desc>Created with Sketch.</desc>
    <g id="Page-3" stroke="none" stroke-width="1" fill="none" fill-rule="evenodd">
        <g id="home-copy-11" transform="translate(-1025.000000, -422.000000)" fill="#FFFFFF" fill-rule="nonzero">
            <g id="google-plus" transform="translate(1025.000000, 422.000000)">
                <path d="M6.5,5.2 L6.5,7.8 L10.1777,7.8 C9.6408,9.3132 8.1952,10.4 6.5,10.4 C4.3498,10.4 2.6,8.6502 2.6,6.5 C2.6,4.3498 4.3498,2.6 6.5,2.6 C7.4321,2.6 8.3291,2.9341 9.0259,3.5412 L10.7341,1.5808 C9.5641,0.5616 8.0613,0 6.5,0 C2.9159,0 0,2.9159 0,6.5 C0,10.0841 2.9159,13 6.5,13 C10.0841,13 13,10.0841 13,6.5 L13,5.2 L6.5,5.2 Z" id="Path"></path>
            </g>
        </g>
    </g>
</svg>