<?xml version="1.0" encoding="UTF-8"?>
<svg width="7px" height="13px" viewBox="0 0 7 13" version="1.1" xmlns="http://www.w3.org/2000/svg" xmlns:xlink="http://www.w3.org/1999/xlink">
    <!-- Generator: Sketch 55.2 (78181) - https://sketchapp.com -->
    <title>Path</title>
    <desc>Created with Sketch.</desc>
    <g id="Page-3" stroke="none" stroke-width="1" fill="none" fill-rule="evenodd">
        <g id="home-copy-11" transform="translate(-1028.000000, -302.000000)" fill="#FFFFFF" fill-rule="nonzero">
            <g id="Group-12" transform="translate(1011.000000, 289.000000)">
                <path d="M23.7364005,13.0027049 L22.0574188,13 C20.1711405,13 18.9521445,14.2557348 18.9521445,16.1993175 L18.9521445,17.6744172 L17.2640035,17.6744172 C17.1181281,17.6744172 17,17.7931608 17,17.9396294 L17,20.0768807 C17,20.2233493 17.1182628,20.3419577 17.2640035,20.3419577 L18.9521445,20.3419577 L18.9521445,25.734923 C18.9521445,25.8813916 19.0702727,26 19.2161481,26 L21.4186919,26 C21.5645673,26 21.6826955,25.8812563 21.6826955,25.734923 L21.6826955,20.3419577 L23.656526,20.3419577 C23.8024014,20.3419577 23.9205295,20.2233493 23.9205295,20.0768807 L23.9213377,17.9396294 C23.9213377,17.8693029 23.8934557,17.8019517 23.8440224,17.7521821 C23.7945891,17.7024125 23.7272412,17.6744172 23.6571995,17.6744172 L21.6826955,17.6744172 L21.6826955,16.4239568 C21.6826955,15.8229352 21.8253382,15.5178261 22.6050915,15.5178261 L23.7361312,15.5174204 C23.8818719,15.5174204 24,15.3986767 24,15.2523434 L24,13.2677819 C24,13.1215838 23.8820066,13.0029754 23.7364005,13.0027049 Z" id="Path"></path>
            </g>
        </g>
    </g>
</svg>