<?xml version="1.0" encoding="UTF-8"?>
<svg width="26px" height="26px" viewBox="0 0 26 26" version="1.1" xmlns="http://www.w3.org/2000/svg" xmlns:xlink="http://www.w3.org/1999/xlink">
    <!-- Generator: Sketch 55.2 (78181) - https://sketchapp.com -->
    <title>reunion nord</title>
    <desc>Created with Sketch.</desc>
    <g id="Page-2" stroke="none" stroke-width="1" fill="none" fill-rule="evenodd">
        <g id="home-copy-13" transform="translate(-299.000000, -444.000000)">
            <g id="Group-7" transform="translate(295.000000, 384.000000)">
                <g id="Group" transform="translate(0.000000, 61.000000)">
                    <g id="reunion-nord-copy" transform="translate(5.000000, 0.000000)">
                        <g id="ReÌunion_communes">
                            <polygon id="polygon13" fill-rule="nonzero" points="24.6566288 14.1326226 24.1832049 14.3374518 23.7950157 15.7640868 23.2750841 17.4029979 23.5887548 21.428322 23.5858193 21.5957187 22.257113 23.0733728 18.598847 23.4352206 18.3105698 24.0388548 15.5968881 24.1225532 14.966505 23.534605 13.111112 23.3860632 9.95311348 22.0128636 9.73963771 22.0081499 9.42762921 21.5348759 8.08834812 21.182416 7.52876997 20.2133293 6.663125 19.6440776 4.92140176 19.1034647 4.65314236 18.5713286 4.51379601 17.9941942 4.18813581 17.6880793 3.16429383 17.0077183 2.82240014 15.8042128 2.64577688 15.5252316 3.0347088 14.6607976 2.7141061 13.4577675 2.31438721 13.1140616 2.21394467 12.7531248 1.65981305 11.4731303 0.268117934 9.85184618 0.272503453 9.60079074 0.283431885 8.97913344 0.288878418 8.66830479 0.00240496234 8.2613795 0.185747974 7.85279055 0.817050588 7.1730237 1.07321444 7.17868809 1.37206638 7.18526354 2.19675626 6.43803892 2.43955136 5.98892776 2.64595371 5.18018702 2.38310548 4.33726187 2.73232016 2.69450849 3.96592437 2.98481857 6.08826827 1.30938599 6.7630724 0.582759157 7.19508145 0.30528309 8.13796815 0.122754937 8.86508022 0.0670220564 9.14324241 0.0372344758 9.70954031 0.623796302 10.5421171 0.642136262 11.6741823 0.631243198 12.1001082 0.700404256 12.6510215 0.951736967 15.2102197 1.1516148 15.6488777 1.71143911 17.0968419 1.95861265 18.0804008 3.10448383 18.5284311 3.73624198 19.0413954 4.32165508 18.9880972 6.13826177 19.4217332 6.9849896 20.4053627 8.13090039 20.4331967 8.37070626 20.3994564 8.46561457 20.396521 8.63301126 20.8883358 9.20598647 21.7296128 10.5520128 22.5131708 11.5380134 23.3733692 11.8080822 24.2586429 12.4734305 24.6603777 13.9174152"></polygon>
                            <polygon id="polygon16" stroke="#E6E6E6" stroke-width="0.5" points="9.46709889 9.56419004 9.73535829 10.0963262 8.96683135 10.0793726 8.06893159 10.7412748 7.42935307 10.0694302 7.87855053 9.11658411 7.41831854 8.87317363 7.13417931 7.41984074 7.2907848 7.01667851 6.42036527 6.11247492 5.76115802 5.34449405 4.86870479 5.08563522 3.95747163 4.68286911 3.96921351 4.01336154 4.4079423 3.35332104 4.15825062 2.83298905 6.08826827 1.30938599 7.35306625 4.68591916 7.37966231 4.99746081 7.37418041 5.30828946 8.07179632 5.10837202 9.0232065 5.65556037 9.62381048 6.7212586 9.63802805 7.12818388 9.63275835 7.42708958 9.31063487 7.52762266 9.38345571 8.2468026 9.37507371 8.72498834 9.33882244 8.96336821 9.24860098 9.23644744"></polygon>
                            <polygon id="polygon19" fill="#FFC84A" points="6.7630724 0.582759157 7.19508145 0.30528309 8.13796815 0.122754937 8.86508022 0.0670220564 9.14324241 0.0372344758 9.70954031 0.623796302 10.5421171 0.642136262 11.3531906 0.634332867 11.3531906 0.634332867 11.6002297 2.41152647 10.5779086 4.68524577 10.7352567 5.45409809 10.0590379 6.53160044 10.0541219 6.53936422 9.62381048 6.7212586 9.0232065 5.65556037 8.07179632 5.10837202 7.37418041 5.30828946 7.37966231 4.99746081 7.35306625 4.68591916 6.08826827 1.30938599"></polygon>
                            <polygon id="polygon22" fill="#FFC84A" points="11.8000892 6.23103107 12.4315333 6.14927367 12.8382548 6.09845257 14.1511521 3.08966927 14.0583135 1.06165789 14.0688175 1.06245012 12.6510215 0.951736967 12.1001082 0.700404256 11.6741823 0.631243198 11.3531906 0.634332867 11.3531906 0.634332867 11.6002297 2.41152647 10.5779086 4.68524577 10.7352567 5.45409809 10.0541219 6.53936422 10.7398191 6.4109845 10.8976271 5.93608649 11.6247391 5.88035361"></polygon>
                            <polygon id="polygon25" fill="#FFC84A" points="13.932442 5.81158867 12.8382548 6.09845257 14.1511521 3.08966927 14.0583135 1.06165789 14.0688175 1.06245012 15.2102197 1.1516148 15.6488777 1.71143911 16.2565905 1.81518069 16.2751582 1.81834959 16.2123109 2.46531841 16.9514832 2.93609686 16.5270073 3.39313024 16.1896406 3.75648327 15.9039452 3.60663431 15.3293714 4.40123387 14.8094752 4.51539319"></polygon>
                            <polygon id="polygon28" fill="#FFC84A" points="15.3293714 4.40123387 15.9039452 3.60663431 16.1896406 3.75648327 16.5270073 3.39313024 16.9514832 2.93609686 16.2123109 2.46531841 16.2751582 1.81834959 16.2565905 1.81518069 17.0968419 1.95861265 18.0804008 3.10448383 18.5284311 3.73624198 19.0413954 4.32165508 19.0358074 4.51309574 19.0358074 4.51313535 18.6086083 4.6469418 17.617587 5.13934793 17.1117315 4.75745689 14.5234968 6.207304 14.5234968 6.20734361 13.932442 5.81158867 14.8094752 4.51539319"></polygon>
                            <polygon id="polygon31" points="13.5082491 9.29447776 13.6782233 8.12614706 13.4892569 7.94262863 13.6606812 6.69063918 17.1117315 4.75745689 17.617587 5.13934793 18.6086083 4.6469418 19.0358074 4.51313535 19.0358074 4.51309574 18.9880972 6.13826177 18.7320041 6.1326766 18.3904287 6.12511087 17.8027337 6.75797813 17.8566685 7.33321117 17.3174972 7.63227531 16.2220369 7.990875 14.5542662 9.92746385"></polygon>
                            <polygon id="polygon34" points="14.8953111 11.7767894 15.1717757 11.8427023 17.4741027 10.8649408 19.7091969 13.7126652 20.3969454 13.4647787 20.577742 11.6867928 21.7296128 10.5520128 20.8883358 9.20598647 20.396521 8.63301126 20.3994564 8.46561457 20.4331967 8.37070626 20.4053627 8.13090039 19.4217332 6.9849896 18.9880972 6.13826177 18.7320041 6.1326766 18.3904287 6.12511087 17.8027337 6.75797813 17.8566685 7.33321117 17.3174972 7.63227531 16.2220369 7.990875 14.5542662 9.92746385 13.5082491 9.29447776 12.2815061 9.81766176 12.1236627 10.2925202 11.1696708 11.1087078 11.5534037 12.3609349 12.8129674 12.3887023 14.2889423 12.2537868 14.7031617 11.7725906"></polygon>
                            <polygon id="polygon37" points="21.7296128 10.5520128 22.5131708 11.5380134 23.3733692 11.8080822 24.2586429 12.4734305 24.6603777 13.9174152 24.6566288 14.1326226 24.1832049 14.3374518 23.7950157 15.7640868 23.2750841 17.4029979 18.3268387 17.0309304 17.1351798 16.7893816 17.3921925 15.5273309 17.5504602 15.0285474 19.7091969 13.7126652 20.3969454 13.4647787 20.577742 11.6867928"></polygon>
                            <polygon id="polygon40" points="22.257113 23.0733728 19.4948723 23.3466105 18.6205624 19.7641786 18.8738615 18.7173352 18.4305704 18.4205289 18.3268387 17.0309304 23.2750841 17.4029979 23.5887548 21.428322 23.5858193 21.5957187"></polygon>
                            <polygon id="polygon43" points="15.7262256 15.5384221 16.61157 14.9839057 17.3921925 15.5273309 17.1351798 16.7893816 18.3268387 17.0309304 18.4305704 18.4205289 18.8738615 18.7173352 18.6205624 19.7641786 19.4948723 23.3466105 18.598847 23.4352206 18.3105698 24.0388548 15.5968881 24.1225532 14.966505 23.534605 14.823233 23.5231573 14.8589537 23.5259301 15.0418723 21.6705837 14.7993248 21.4977999 14.8468582 20.6138376 15.4073559 20.315328 15.2504674 19.5224318 15.1554714 18.8506267 15.5487181 15.9172234"></polygon>
                            <polygon id="polygon46" points="7.52876997 20.2133293 6.663125 19.6440776 7.08848503 18.5293011 6.9201023 14.7463576 7.18761899 14.1064396 7.51791228 13.5396041 7.75055702 13.6643 9.07155331 15.0568298 9.68439431 14.8192421 9.88068167 15.1942408 9.62175918 18.9917216"></polygon>
                            <polygon id="polygon51" points="5.78513691 17.352454 5.4971073 17.9440465 4.51379601 17.9941942 4.18813581 17.6880793 7.44176692 13.0117856 7.51791228 13.5396041 7.18761899 14.1064396 6.9201023 14.7463576 6.55716519 14.7383562 6.32961331 15.8395064 5.39065235 16.7099217"></polygon>
                            <polygon id="polygon58" points="3.16429383 17.0077183 2.82240014 15.8042128 2.64577688 15.5252316 3.0347088 14.6607976 2.7141061 13.4577675 2.31438721 13.1140616 2.21394467 12.7531248 2.51562598 12.6041869 4.24175233 11.6017477 7.42471999 11.552313 7.73474792 11.7789284 7.7300441 11.798219 7.44176692 13.0117856 4.18813581 17.6880793"></polygon>
                            <polygon id="polygon61" points="5.82071621 10.4645117 3.68592309 10.4174933 2.67329248 10.9213471 1.65981305 11.4731303 2.21394467 12.7531248 2.51562598 12.6041869 4.24175233 11.6017477 7.42471999 11.552313 7.76208669 11.798932 8.04254774 11.6376354 8.08774688 11.4951541 7.2045952 10.7102593"></polygon>
                            <polygon id="polygon64" points="7.13417931 7.41984074 7.41831854 8.87317363 7.87855053 9.11658411 7.42935307 10.0694302 8.06893159 10.7412748 8.96683135 10.0793726 9.73535829 10.0963262 9.73206915 10.2876084 9.54780659 11.0489346 9.31113 11.151369 8.08774688 11.4951541 7.2045952 10.7102593 5.82071621 10.4645117 3.68592309 10.4174933 2.67329248 10.9213471 1.65981305 11.4731303 0.268117934 9.85184618 0.272503453 9.60079074 0.283431885 8.97913344 0.288878418 8.66830479 0.00240496234 8.2613795 0.185747974 7.85279055 0.817050588 7.1730237 1.07321444 7.17868809 1.37206638 7.18526354 2.19675626 6.43803892 2.43955136 5.98892776 2.64595371 5.18018702 2.38310548 4.33726187 2.73232016 2.69450849 3.96592437 2.98481857 4.15825062 2.83298905 4.4079423 3.35332104 3.96921351 4.01336154 3.95747163 4.68286911 4.86870479 5.08563522 5.76115802 5.34449405 6.42036527 6.11247492 7.2907848 7.01667851"></polygon>
                            <polygon id="polygon67" points="4.15825062 2.83298905 4.4079423 3.35332104 3.96921351 4.01336154 3.95747163 4.68286911 3.38823827 4.26366436 2.38310548 4.33726187 2.73232016 2.69450849 3.96592437 2.98481857"></polygon>
                            <polygon id="polygon70" points="15.0418723 21.6705837 14.8589537 23.5259301 14.8466813 23.5250191 13.111112 23.3860632 12.6120116 23.1690733 12.6279975 23.1759657 13.1092729 21.0539174 14.3776429 20.579574 14.9302538 19.515381 15.2504674 19.5224318 15.4073559 20.315328 14.8468582 20.6138376 14.7993248 21.4977999"></polygon>
                            <polygon id="polygon73" points="12.6237181 20.7322749 12.4981295 20.585991 11.9100455 20.0229186 10.7946381 17.8694983 10.2362624 18.0485803 9.91972694 19.0462266 9.62175918 18.9917216 7.52876997 20.2133293 8.08834812 21.182416 9.42762921 21.5348759 9.73963771 22.0081499 9.95311348 22.0128636 12.6325598 23.1779462 12.6279975 23.1759657 13.1092729 21.0539174 14.3776429 20.579574 14.9302538 19.515381 15.2504674 19.5224318 15.1554714 18.8506267 14.6389704 19.0784304 14.4572189 19.6963247"></polygon>
                            <polygon id="polygon76" points="6.663125 19.6440776 4.92140176 19.1034647 4.65314236 18.5713286 4.51379601 17.9941942 5.4971073 17.9440465 5.78513691 17.352454 5.39065235 16.7099217 6.32961331 15.8395064 6.55716519 14.7383562 6.9201023 14.7463576 7.08848503 18.5293011"></polygon>
                            <polyline id="polyline83" points="2.21394467 12.7531248 2.51562598 12.6041869 4.24175233 11.6017477"></polyline>
                            <polygon id="polygon85" points="9.73206915 10.2876084 9.73348383 10.2060094 9.7339436 10.1800245 11.1696708 11.1087078 11.5534037 12.3609349 11.0028442 14.5254859 9.88068167 15.1942408 9.68439431 14.8192421 9.07155331 15.0568298 7.75055702 13.6643 7.51791228 13.5396041 7.44176692 13.0117856 7.7300441 11.798219 7.76208669 11.798932 8.04254774 11.6376354 8.08774688 11.4951541 9.31113 11.151369 9.54780659 11.0489346"></polygon>
                            <polygon id="polygon94" points="11.9085247 16.4589851 11.808931 16.0501584 12.641154 14.8725191 13.2188048 14.8134589 13.4601498 14.4480857 12.8129674 12.3887023 11.5534037 12.3609349 11.0028442 14.5254859 9.88068167 15.1942408 9.62338607 18.9683511 9.62175918 18.9917216 9.91972694 19.0462266 10.2362624 18.0485803 10.7946381 17.8694983"></polygon>
                            <polygon id="polygon101" points="11.9100455 20.0229186 12.4981295 20.585991 12.6237181 20.7322749 14.4572189 19.6963247 14.6389704 19.0784304 15.1554714 18.8506267 15.5487181 15.9172234 15.7262256 15.5384221 16.61157 14.9839057 17.3921925 15.5273309 17.5504602 15.0285474 16.6170166 13.4532122 16.2379521 13.7558017 16.22957 14.2339875 15.8886313 14.4956191 15.529054 14.6013016 14.8463984 13.9524315 14.2889423 12.2537868 12.8274679 12.3873951 12.8129674 12.3887023 13.4601498 14.4480857 13.2188048 14.8134589 12.641154 14.8725191 11.808931 16.0501584 11.9085247 16.4589851 10.7946381 17.8694983 10.8317735 17.9411153"></polygon>
                            <polyline id="polyline104" fill="#FFC84A" points="9.73358993 10.1992359 9.73535829 10.0963262 9.46709889 9.56419004 9.24860098 9.23644744 9.33882244 8.96336821 9.37507371 8.72498834 9.38345571 8.2468026 9.31063487 7.52762266 9.63275835 7.42708958 9.63802805 7.12818388 9.62381048 6.7212586 10.0541219 6.53936422 10.7398191 6.4109845 10.8976271 5.93608649 11.6247391 5.88035361 11.8000892 6.23103107 12.4315333 6.14927367 12.8382548 6.09845257 13.932442 5.81158867 14.5234968 6.20734361 14.5234968 6.207304 13.6606812 6.69063918 13.4892569 7.94262863 13.6782233 8.12614706 13.5082491 9.29447776 12.2815061 9.81766176 12.1236627 10.2925202 11.1696708 11.1087078 9.7339436 10.1800245"></polyline>
                            <polyline id="polyline111" points="19.6980916 13.7194387 17.5675779 15.0180901 17.5504602 15.0285474 16.6170166 13.4532122 16.2379521 13.7558017 16.22957 14.2339875 15.8886313 14.4956191 15.529054 14.6013016 14.8463984 13.9524315 14.2889423 12.2537868 14.7031617 11.7725906 14.8953111 11.7767894 15.1717757 11.8427023 17.4741027 10.8649408 19.7091969 13.7126652"></polyline>
                            <polyline id="polyline113" points="19.7715597 13.7310649 19.7421597 13.7405649 19.7107597 13.7576649"></polyline>
                            <polyline id="polyline116" stroke="#E6E6E6" stroke-width="0.5" points="18.9880972 6.13826177 18.7320041 6.1326766 18.3904287 6.12511087 17.8027337 6.75797813 17.8566685 7.33321117 17.3174972 7.63227531 16.2220369 7.990875 14.5542662 9.92746385 13.5082491 9.29447776 13.6782233 8.12614706 13.4892569 7.94262863 13.6606812 6.69063918 17.1117315 4.75745689 17.617587 5.13934793 18.6086083 4.6469418 19.0358074 4.51313535"></polyline>
                            <polyline id="polyline118" stroke="#E6E6E6" stroke-width="0.5" points="16.2751582 1.81834959 16.2123109 2.46531841 16.9514832 2.93609686 16.5270073 3.39313024 16.1896406 3.75648327 15.9039452 3.60663431 15.3293714 4.40123387 14.8094752 4.51539319 13.932442 5.81158867 14.5234968 6.20734361"></polyline>
                            <polyline id="polyline120" stroke="#E6E6E6" stroke-width="0.5" points="14.0583135 1.06165789 14.1511521 3.08966927 12.8382548 6.09845257 13.932442 5.81158867"></polyline>
                            <polyline id="polyline122" stroke="#E6E6E6" stroke-width="0.5" points="11.3531906 0.634332867 11.6002297 2.41152647 10.5779086 4.68524577 10.7352567 5.45409809 10.0541219 6.53936422 10.7398191 6.4109845 10.8976271 5.93608649 11.6247391 5.88035361 11.8000892 6.23103107 12.4315333 6.14927367 12.8382548 6.09845257"></polyline>
                            <polyline id="polyline124" stroke="#E6E6E6" stroke-width="0.5" fill="#FFC84A" points="6.08826827 1.30938599 7.35306625 4.68591916 7.37966231 4.99746081 7.37418041 5.30828946 8.07179632 5.10837202 9.0232065 5.65556037 9.62381048 6.7212586 10.0541219 6.53936422"></polyline>
                            <polygon id="polyline126" stroke="#E6E6E6" stroke-width="0.5" fill="#FFC84A" points="4.15825062 2.83298905 4.4079423 3.35332104 3.96921351 4.01336154 3.95747163 4.68286911 4.86870479 5.08563522 5.76115802 5.34449405 6.42036527 6.11247492 7.2907848 7.01667851 7.13417931 7.41984074 7.41831854 8.87317363 7.87855053 9.11658411 7.42935307 10.0694302 8.06893159 10.7412748 8.96683135 10.0793726 9.73535829 10.0963262 9.46709889 9.56419004 9.24860098 9.23644744 9.33882244 8.96336821 9.37507371 8.72498834 9.38345571 8.2468026 9.31063487 7.52762266 9.63275835 7.42708958 9.63802805 7.12818388 9.62381048 6.7212586 9.0232065 5.65556037 8.08774688 5.08563522 7.57736871 5.18424236 7.7300441 4.01532229 6.08826827 1.30938599"></polygon>
                            <polyline id="polyline128" stroke="#E6E6E6" stroke-width="0.5" points="2.38310548 4.33726187 3.38823827 4.26366436 3.95747163 4.68286911"></polyline>
                            <polyline id="polyline130" stroke="#E6E6E6" stroke-width="0.5" points="1.65981305 11.4731303 2.67329248 10.9213471 3.68592309 10.4174933 5.82071621 10.4645117 7.2045952 10.7102593 8.08774688 11.4951541 9.31113 11.151369 9.54780659 11.0489346 9.73206915 10.2876084 9.73535829 10.0963262"></polyline>
                            <polyline id="polyline132" stroke="#E6E6E6" stroke-width="0.5" points="2.21394467 12.7531248 2.51562598 12.6041869 4.24175233 11.6017477 7.42471999 11.552313 7.76208669 11.798932 8.04254774 11.6376354 8.08774688 11.4951541"></polyline>
                            <polyline id="polyline134" stroke="#E6E6E6" stroke-width="0.5" points="4.18813581 17.6880793 7.44176692 13.0117856 7.7300441 11.798219"></polyline>
                            <polyline id="polyline136" stroke="#E6E6E6" stroke-width="0.5" points="4.51379601 17.9941942 5.4971073 17.9440465 5.78513691 17.352454 5.39065235 16.7099217 6.32961331 15.8395064 6.55716519 14.7383562 6.9201023 14.7463576 7.18761899 14.1064396 7.51791228 13.5396041 7.44176692 13.0117856"></polyline>
                            <polyline id="polyline138" stroke="#E6E6E6" stroke-width="0.5" points="6.663125 19.6440776 7.08848503 18.5293011 6.9201023 14.7463576"></polyline>
                            <polyline id="polyline140" stroke="#E6E6E6" stroke-width="0.5" points="7.52876997 20.2133293 9.62175918 18.9917216 9.88068167 15.1942408 9.68439431 14.8192421 9.07155331 15.0568298 7.75055702 13.6643 7.51791228 13.5396041"></polyline>
                            <polyline id="polyline142" stroke="#E6E6E6" stroke-width="0.5" points="12.6279975 23.1759657 13.1092729 21.0539174 14.3776429 20.579574 14.9302538 19.515381 15.2504674 19.5224318 15.1554714 18.8506267 14.6389704 19.0784304 14.4572189 19.6963247 12.6237181 20.7322749 12.4981295 20.585991 11.9100455 20.0229186 10.7946381 17.8694983 10.2362624 18.0485803 9.91972694 19.0462266 9.62175918 18.9917216"></polyline>
                            <polyline id="polyline144" stroke="#E6E6E6" stroke-width="0.5" points="14.8589537 23.5259301 15.0418723 21.6705837 14.7993248 21.4977999 14.8468582 20.6138376 15.4073559 20.315328 15.2504674 19.5224318 15.1554714 18.8506267 15.5487181 15.9172234 15.7262256 15.5384221 16.61157 14.9839057 17.3921925 15.5273309 17.1351798 16.7893816 18.3268387 17.0309304 18.4305704 18.4205289 18.8738615 18.7173352 18.6205624 19.7641786 19.4948723 23.3466105"></polyline>
                            <path d="M23.2750834,17.4029983 L18.3268397,17.0309304" id="line146" stroke="#E6E6E6" stroke-width="0.5"></path>
                            <polyline id="polyline148" stroke="#E6E6E6" stroke-width="0.5" points="21.7296128 10.5520128 20.577742 11.6867928 20.3969454 13.4647787 19.7091969 13.7126652 17.5504602 15.0285474 17.3921925 15.5273309"></polyline>
                            <polyline id="polyline150" stroke="#E6E6E6" stroke-width="0.5" points="13.5082491 9.29447776 12.2815061 9.81766176 12.1236627 10.2925202 11.1696708 11.1087078 11.5534037 12.3609349 12.8129674 12.3887023 14.2889423 12.2537868 14.7031617 11.7725906 14.8953111 11.7767894 15.1717757 11.8427023 17.4741027 10.8649408 19.7091969 13.7126652"></polyline>
                            <polyline id="polyline152" stroke="#E6E6E6" stroke-width="0.5" points="9.88068167 15.1942408 11.0028442 14.5254859 11.5534037 12.3609349"></polyline>
                            <polyline id="polyline154" stroke="#E6E6E6" stroke-width="0.5" points="10.7946381 17.8694983 11.9085247 16.4589851 11.808931 16.0501584 12.641154 14.8725191 13.2188048 14.8134589 13.4601498 14.4480857 12.8129674 12.3887023"></polyline>
                            <polyline id="polyline156" stroke="#E6E6E6" stroke-width="0.5" points="17.5504602 15.0285474 16.6170166 13.4532122 16.2379521 13.7558017 16.22957 14.2339875 15.8886313 14.4956191 15.529054 14.6013016 14.8463984 13.9524315 14.2889423 12.2537868"></polyline>
                            <path d="M11.1696711,11.1087078 L9.73394396,10.1800241" id="line158" stroke="#E6E6E6" stroke-width="0.5"></path>
                            <polygon id="polygon161" stroke="#E6E6E6" stroke-width="0.5" points="24.6566288 14.1326226 24.1832049 14.3374518 23.7950157 15.7640868 23.2750841 17.4029979 23.5887548 21.428322 23.5858193 21.5957187 22.257113 23.0733728 18.598847 23.4352206 18.3105698 24.0388548 15.5968881 24.1225532 14.966505 23.534605 13.111112 23.3860632 9.95311348 22.0128636 9.73963771 22.0081499 9.42762921 21.5348759 8.08834812 21.182416 7.52876997 20.2133293 6.663125 19.6440776 4.92140176 19.1034647 4.65314236 18.5713286 4.51379601 17.9941942 4.18813581 17.6880793 3.16429383 17.0077183 2.82240014 15.8042128 2.64577688 15.5252316 3.0347088 14.6607976 2.7141061 13.4577675 2.31438721 13.1140616 2.21394467 12.7531248 1.65981305 11.4731303 0.268117934 9.85184618 0.272503453 9.60079074 0.283431885 8.97913344 0.288878418 8.66830479 0.00240496234 8.2613795 0.185747974 7.85279055 0.817050588 7.1730237 1.07321444 7.17868809 1.37206638 7.18526354 2.19675626 6.43803892 2.43955136 5.98892776 2.64595371 5.18018702 2.38310548 4.33726187 2.73232016 2.69450849 3.96592437 2.98481857 6.08826827 1.30938599 6.7630724 0.582759157 7.19508145 0.30528309 8.13796815 0.122754937 8.86508022 0.0670220564 9.14324241 0.0372344758 9.70954031 0.623796302 10.5421171 0.642136262 11.6741823 0.631243198 12.1001082 0.700404256 12.6510215 0.951736967 15.2102197 1.1516148 15.6488777 1.71143911 17.0968419 1.95861265 18.0804008 3.10448383 18.5284311 3.73624198 19.0413954 4.32165508 18.9880972 6.13826177 19.4217332 6.9849896 20.4053627 8.13090039 20.4331967 8.37070626 20.3994564 8.46561457 20.396521 8.63301126 20.8883358 9.20598647 21.7296128 10.5520128 22.5131708 11.5380134 23.3733692 11.8080822 24.2586429 12.4734305 24.6603777 13.9174152"></polygon>
                        </g>
                    </g>
                </g>
            </g>
        </g>
    </g>
</svg>